# xmcd
#
# Track frame offsets:
#       300
#       18638
#       33134
#       55447
#       75703
#       93692
#       110056
#       131516
#       150557
#       165342
#       181387
#       202842
#       222620
#
# Disc length: 3214 seconds
#
# Revision: 0
# Processed by: cddbd v1.4PL0 Copyright (c) Steve Scherf et al.
# Submitted via: WaveLab 4.01
#
DISCID=b00c8a0d
DTITLE=Douglas Marsh - Rolling with the Dogs
DYEAR=2003
DGENRE=alt-country/americana
TTITLE0=Rolling with the Dogs
TTITLE1=In the Morning
TTITLE2=Around Midnight
TTITLE3=I'm Leaving
TTITLE4=By the Way, What's Your Name?
TTITLE5=All I Ever Dream About is You
TTITLE6=Badtooth Henry
TTITLE7=Brushfire
TTITLE8=Luwayndalyn
TTITLE9=Mama Don't Cry
TTITLE10=Falling in Love
TTITLE11=Once You Taste the Delights
TTITLE12=I Don't Know Nothing Anymore
EXTD=
EXTT0=
EXTT1=
EXTT2=
EXTT3=
EXTT4=
EXTT5=
EXTT6=
EXTT7=
EXTT8=
EXTT9=
EXTT10=
EXTT11=
EXTT12=
PLAYORDER=
